<svg xmlns="http://www.w3.org/2000/svg" xml:space="preserve" style="fill-rule:evenodd;clip-rule:evenodd;stroke-linejoin:round;stroke-miterlimit:2" viewBox="0 0 169 41"><path d="M61.887 48.392v-2.734c0-1.495-.223-2.671-.67-3.528-.447-.856-1.513-2.675-3.199-5.455-1.686-2.78-2.835-4.812-3.445-6.097-.611-1.285-.916-3.286-.916-6.002v-2.953c0-2.388.382-4.011 1.148-4.867.766-.857 2.233-1.285 4.402-1.285h2.051c2.169 0 3.628.428 4.375 1.285.747.856 1.121 2.479 1.121 4.867l-4.594 6.316v-5.633c0-.893-.082-1.49-.246-1.791-.164-.3-.601-.451-1.312-.451h-.52c-.656 0-1.08.151-1.271.451-.192.301-.287.862-.287 1.682v2.598c0 1.859.214 3.217.642 4.074.429.857 1.495 2.675 3.199 5.455 1.705 2.78 2.862 4.812 3.473 6.097.611 1.286.916 3.104.916 5.455v3.2c0 2.388-.374 4.01-1.121 4.867-.747.857-2.206 1.285-4.375 1.285h-2.051c-2.169 0-3.636-.428-4.402-1.285s-1.148-3.026-1.148-6.508l4.593-5.031v5.988c0 .912.082 1.513.246 1.805.164.291.602.437 1.313.437h.519c.657 0 1.08-.146 1.272-.437.191-.292.287-.893.287-1.805ZM70.117 15.908v38.554h5.141c.237 0 .355-.118.355-.355l-.164-.356c0-.109.055-.164.164-.164l-.164-1.777V40.244c0-.255.055-.492.164-.711-.109-.219-.164-.392-.164-.52h.164c4.011 0 6.38-.419 7.11-1.258 1.185-1.203 1.777-2.679 1.777-4.429V21.24c0-2.406-1.24-4.12-3.719-5.141l-1.066-.191h-9.598Zm5.688 4.977h1.777c1.057.164 1.586.701 1.586 1.613v10.117c0 1.057-.647 1.586-1.941 1.586h-1.422c-.237 0-.356-.119-.356-.356V21.24c.037-.237.155-.355.356-.355ZM88.848 49.076V21.623c0-2.388.382-4.011 1.148-4.867.766-.857 2.233-1.285 4.402-1.285h2.516c2.169 0 3.637.428 4.402 1.285.766.856 1.149 2.479 1.149 4.867v27.453c0 2.388-.383 4.01-1.149 4.867-.765.857-2.233 1.285-4.402 1.285h-2.516c-2.169 0-3.636-.428-4.402-1.285s-1.148-2.479-1.148-4.867Zm8.749-.684V22.306c0-.893-.095-1.49-.287-1.791-.191-.3-.624-.451-1.298-.451h-.657c-.674 0-1.107.151-1.299.451-.191.301-.287.898-.287 1.791v26.086c0 .912.096 1.513.287 1.805.192.291.625.437 1.299.437h.657c.674 0 1.107-.146 1.298-.437.192-.292.287-.893.287-1.805ZM111.98 54.955h-4.867V20.283h-3.254v-4.539h11.43v4.539h-3.309v34.672ZM123.683 54.955h-4.867V20.283h-3.254v-4.539h11.43v4.539h-3.309v34.672ZM133.417 20.338v11.894h4.485l-2.188 4.566h-2.297v13.563h5.496v4.594H128.55V15.744h10.363v4.594h-5.496ZM141.101 54.955V15.744h8.066c2.169 0 3.628.433 4.375 1.299.748.866 1.121 2.493 1.121 4.881v26.878c0 2.388-.373 4.011-1.121 4.867-.747.857-2.206 1.286-4.375 1.286h-8.066Zm4.867-4.594h2.242c.675 0 1.108-.151 1.299-.451.191-.301.287-.898.287-1.791V22.58c0-.893-.096-1.49-.287-1.791-.191-.301-.624-.451-1.299-.451h-2.242v30.023ZM167.214 40.845l-1.067 14.11h-6.179l-3.582-39.211h4.894l1.395 16.133c.437 4.976.711 9.342.82 13.097.128-3.354.392-7.72.793-13.097l1.285-16.133h4.867l1.231 16.133c.492 6.161.775 10.527.847 13.097.11-3.755.392-8.121.848-13.097l1.34-16.133h4.43l-3.637 39.211h-5.988l-1.067-14.11c-.31-4.265-.519-8.276-.629-12.031a307.15 307.15 0 0 1-.601 12.031ZM185.835 20.338v11.894h4.484l-2.187 4.566h-2.297v13.563h5.496v4.594h-10.363V15.744h10.363v4.594h-5.496ZM193.464 54.955V15.744h8.011c2.169 0 3.637.433 4.402 1.299.766.866 1.149 2.493 1.149 4.881v6.644c0 1.805-.205 3.154-.615 4.047-.41.893-1.126 1.486-2.147 1.777 1.021.31 1.737.893 2.147 1.75.41.857.615 2.179.615 3.965v8.695c0 2.388-.383 4.011-1.149 4.867-.765.857-2.233 1.286-4.402 1.286h-8.011Zm7.109-18.321h-2.242v13.727h2.242c.674 0 1.107-.151 1.299-.451.191-.301.287-.898.287-1.791v-9.242c0-.894-.096-1.491-.287-1.791-.192-.301-.625-.452-1.299-.452Zm1.586-6.781V22.58c0-.893-.096-1.49-.287-1.791-.192-.301-.625-.451-1.299-.451h-2.242v11.703h2.242c.674 0 1.107-.137 1.299-.41.191-.274.287-.866.287-1.778ZM217.444 48.392v-2.734c0-1.495-.224-2.671-.67-3.528-.447-.856-1.513-2.675-3.199-5.455-1.687-2.78-2.835-4.812-3.446-6.097-.61-1.285-.916-3.286-.916-6.002v-2.953c0-2.388.383-4.011 1.149-4.867.765-.857 2.233-1.285 4.402-1.285h2.051c2.169 0 3.627.428 4.375 1.285.747.856 1.121 2.479 1.121 4.867l-4.594 6.316v-5.633c0-.893-.082-1.49-.246-1.791-.164-.3-.601-.451-1.312-.451h-.52c-.656 0-1.08.151-1.271.451-.192.301-.287.862-.287 1.682v2.598c0 1.859.214 3.217.642 4.074.428.857 1.495 2.675 3.199 5.455 1.705 2.78 2.862 4.812 3.473 6.097.611 1.286.916 3.104.916 5.455v3.2c0 2.388-.374 4.01-1.121 4.867-.748.857-2.206 1.285-4.375 1.285h-2.051c-2.169 0-3.637-.428-4.402-1.285-.766-.857-1.149-3.026-1.149-6.508l4.594-5.031v5.988c0 .912.082 1.513.246 1.805.164.291.602.437 1.313.437h.519c.656 0 1.08-.146 1.272-.437.191-.292.287-.893.287-1.805Z" style="fill:#f5f5f5;fill-rule:nonzero" transform="matrix(1 0 0 1.00001 -53.333 -14.993)"/></svg>